@startuml
skinparam shadowing false
skinparam classAttributeIconSize 0

left to right direction

package "UI" #f0f0f0{
    class ManageAgendaUI {
    }

    class ViewDetailsEntryUI {
        +setLabels(entryDto: EntryDto): void
    }


}
package "Core" #f0f0f0{

    package "Mapper" #dddddd{

            class EntryMapper {
                +entryListToEntryDtoList(entryList: List<Entry>): List<EntryDto>
            }

        }

        package "DTO" #dddddd{

            class EntryDto {
                +startDate: Date
                +status: String
                +teamAssigned: TeamDto
                +reference: String
            }

            



        }

    package "Controller" #dddddd{

        class ViewDetailsEntryController {
        }




        class AssignEntryOnAgendaController {
            +getAgenda(): List<EntryDto>
        }


    }

    package "Domain" #dddddd{


        package "Repository" #bbbbbb{

            class Repositories {
                - entryRepository: EntryRepository
                - static instance : Repositories
                + getInstance() : Repositories
                + getEntryRepository() : EntryRepository
                - Repositories()
            }



            class EntryRepository {
                -agenda: AgendaList;
                +getAgenda(): AgendaList
            }




            package "Lists" #999{
                class AgendaList {
                    - agenda: List<Entry>
                    +getList(): List<Entry>
                }
            }


        }

        package "Model" #bbbbbb{

            class Entry {
                +reference: String
                +status: String
                +startDate: Date
                +teamAssigned: Team
                +finishDate: Date
            }



        }



    }
}

ManageAgendaUI ..> AssignEntryOnAgendaController
AssignEntryOnAgendaController ..> Repositories : repositories
AssignEntryOnAgendaController ..> EntryRepository : entryRepository
EntryRepository "1" --> "1" AgendaList
AssignEntryOnAgendaController ..> EntryMapper
EntryMapper ..> EntryDto
ManageAgendaUI ..> ViewDetailsEntryUI
ViewDetailsEntryUI ..>  ViewDetailsEntryController
AgendaList "1" --> "*" Entry
EntryMapper  ..> Entry


Repositories --> Repositories : instance
Repositories  "1" --> "1" EntryRepository


@enduml
