@startuml
skinparam monochrome true
skinparam packageStyle rectangle
skinparam shadowing false

'left to right direction

skinparam classAttributeIconSize 0

hide circle
hide methods

'title Domain Model

'class Platform {
'  -description
'}


class GSM {
    name
    email
    password
}

class Entry{
    periodTime
    status
}

class Vehicle{

}

class Task{

}

GSM "1" -- "0..*" Entry: have >

Entry "1" - "1" Task : extends

GSM "1" -- "0..*" Vehicle : assign >

Entry "1" -- "0..1" Team : have >

Entry "1" -- "0..*" Vehicle : have>

Entry "1" -- "0..*" Equipment : have >

Team "1" -- "0..*" Collaborator : have >

@enduml