@startuml
skinparam shadowing false
skinparam classAttributeIconSize 0

left to right direction

package "UI" #f0f0f0{
    class ViewDetailsEntryAgendaUI {
    }

    class PostponeUI {
        +setEntry(entryDto: EntryDto): void
    }
}

package "Core" #f0f0f0{






    package "Controller" #dddddd{

        class ViewDetailsEntryController {
            +postponeEntry(entryDto)

        }

    }

    package "Mapper" #dddddd{



            class EntryMapper {
                +entryDtoToEntry(entryDto: EntryDto, entry: Entry): Entry

            }
        }

        package "DTO" #dddddd{

            class EntryDto {
                +postpone(newStartDate, newStartTime)
            }


        }

    package "Domain" #dddddd{

    
        package "Repository" #bbbbbb{

            class Repositories {
                - entryRepository: EntryRepository
                - static instance: Repositories
                + getInstance(): Repositories
                + getEntryRepository(): EntryRepository
                - Repositories()
            }

            class EntryRepository {
                - agenda: AgendaList
                + getAgenda(): AgendaList
                + postponeEntry(entryDto)
                + searchForEntryAgenda(entryDto: EntryDto): Entry
            }




        }

        package "Model" #bbbbbb{

            class Entry {

                +status: String
                +startDate: Date
                +postponeEntry(entryDto)
            }


        }
    }
}


ViewDetailsEntryAgendaUI ..> PostponeUI
PostponeUI ..> ViewDetailsEntryController
ViewDetailsEntryController ..> Repositories : repositories
ViewDetailsEntryController ..> EntryRepository : entryRepository



ViewDetailsEntryController ..> EntryDto 
EntryRepository ..> EntryMapper




EntryRepository "1" --> "*" Entry

Repositories "1" --> "1" EntryRepository

EntryMapper ..> EntryDto


@enduml
