@startuml
skinparam monochrome true
skinparam packageStyle rectangle
skinparam shadowing false
'skinparam linetype ortho
'left to right direction
skinparam classAttributeIconSize 0
hide circle
hide methods

'title Domain Model

'class Platform {
'  -description
'}

class GreenSpaceUsers{
    type
}

class Manager{
}

class CommentsAvaliation{
}

class ReportFault{
}

class Park{
}

class Portal{
}


Manager "1" -- "0..*" Park : have >

Portal "1" --- "0..*" GreenSpaceUsers : have >
Portal "1" -- "1" Manager : have >

GreenSpaceUsers "1" --- "0..*" Park : have >
GreenSpaceUsers "1" --- "1" CommentsAvaliation : create >
GreenSpaceUsers "1" --- "0..*" ReportFault : create >


Park "1" -- "0..*" CommentsAvaliation : have >
Park "1" -- "0..*" ReportFault : have >



@enduml