@startuml
skinparam monochrome true
skinparam packageStyle rectangle
skinparam shadowing false

'left to right direction

skinparam classAttributeIconSize 0

hide circle
hide methods

'title Domain Model

'class Platform {
'  -description
'}

class HRM {
name
email
password
}

class Skill {
skillName
}

class Collaborator {
name
birthdate
admissionDate
address
mobileNumber
email
docType
docNumber
}



'Platform "1" -- "*" Organization : has registered >
'Platform "1" -- "*" Category : defines >
HRM "1" -- "0..*" Skill : Register >
Collaborator "1" -- "1" Skill : have >
@enduml